<?xml version="1.0" standalone="no"?>
<!DOCTYPE svg PUBLIC "-//W3C//DTD SVG 20010904//EN"
 "http://www.w3.org/TR/2001/REC-SVG-20010904/DTD/svg10.dtd">
<svg version="1.0" xmlns="http://www.w3.org/2000/svg"
 width="500.000000pt" height="500.000000pt" viewBox="0 0 500.000000 500.000000"
 preserveAspectRatio="xMidYMid meet">
<metadata>
Created by potrace 1.14, written by Peter Selinger 2001-2017
</metadata>
<g transform="translate(0.000000,500.000000) scale(0.100000,-0.100000)"
fill="#000000" stroke="none">
<path d="M2085 3191 c-16 -5 -85 -33 -153 -64 -122 -56 -123 -57 -150 -39 -22
14 -47 17 -152 15 -69 -1 -137 -6 -153 -12 -22 -9 -55 -4 -172 25 -79 19 -162
34 -182 32 l-38 -3 -3 -61 -3 -61 -62 -11 c-58 -9 -72 -8 -212 30 -112 29
-163 38 -202 35 -29 -2 -55 -6 -57 -8 -2 -2 -6 -56 -8 -121 -3 -110 -2 -116
15 -106 10 5 41 13 69 17 196 31 380 -182 380 -439 0 -209 -117 -367 -276
-371 l-41 -1 40 -10 c22 -5 76 -8 120 -6 71 3 94 10 200 57 106 47 193 100
203 123 2 4 19 8 38 8 l34 0 0 -69 0 -68 103 -16 c56 -8 262 -39 458 -68 l356
-52 86 67 c81 63 90 68 169 81 46 8 86 15 89 15 4 0 7 51 6 113 0 97 4 121 27
180 62 164 196 263 381 282 76 8 175 -14 264 -60 366 -186 431 -690 114 -893
-69 -45 -173 -72 -249 -66 -41 3 -53 2 -39 -5 34 -16 175 -12 250 8 141 37
266 146 321 280 l29 73 35 -6 c19 -3 47 -6 63 -6 l27 0 0 -90 c0 -85 1 -90 23
-95 23 -5 598 -85 612 -85 7 0 2 294 -11 571 l-7 136 -235 56 c-129 31 -239
54 -244 51 -4 -3 -8 -30 -8 -60 0 -30 -2 -54 -5 -54 -2 0 -16 5 -30 12 -23 10
-25 15 -18 47 16 75 7 192 -20 253 -50 113 -123 188 -236 241 -52 24 -80 31
-155 34 -83 5 -98 2 -175 -26 -93 -34 -171 -83 -194 -120 -25 -42 -172 -67
-232 -39 -19 9 -25 19 -25 45 l0 33 -70 0 c-46 0 -82 -6 -102 -16 -24 -12 -46
-15 -90 -10 l-58 6 0 -36 c0 -31 -4 -37 -35 -50 -47 -19 -342 -38 -462 -29
l-93 7 0 113 0 112 263 6 c242 5 337 14 311 30 -16 10 -134 27 -186 27 l-48 0
0 60 0 60 -82 -1 c-46 -1 -96 -4 -113 -8z"/>
<path d="M487 2813 c-4 -3 -7 -11 -7 -17 0 -6 5 -5 12 2 6 6 9 14 7 17 -3 3
-9 2 -12 -2z"/>
<path d="M595 2716 c-119 -52 -157 -259 -74 -404 83 -145 247 -159 324 -28 84
144 28 363 -110 427 -47 22 -98 24 -140 5z"/>
<path d="M2953 2506 c-131 -43 -203 -146 -203 -290 0 -149 100 -294 239 -347
68 -25 185 -23 239 5 54 28 113 88 135 136 43 95 23 258 -43 351 -83 117 -250
183 -367 145z"/>
</g>
</svg>
